# xmcd CD Database Entry
#
# Track frame offsets:
# 150
# 19197
# 41885
# 70875
# 92115
# 115815
# 134765
# 154152
# 179039
# 205139
# 230147
# 255377
# 287592
#
# Disc length: 4115 seconds
#
# Revision: 2
# Processed by: cddbd v1.5.2PL0 Copyright (c) Steve Scherf et al.
# Submitted via: tcd 2.0b
#
DISCID=c410110d
DTITLE=My Selection
DYEAR=1900
DGENRE=
TTITLE0=BE TOGEHER - 鈴木あみ
TTITLE1=トラック 2
TTITLE2=Pure Soul - GLAY
TTITLE3=トラック 4
TTITLE4=トラック 5
TTITLE5=トラック 6
TTITLE6=トラック 7
TTITLE7=トラック 8
TTITLE8=トラック 9
TTITLE9=トラック 10
TTITLE10=トラック 11
TTITLE11=トラック 12
TTITLE12=トラック 13
EXTD=
EXTT0=
EXTT1=
EXTT2=
EXTT3=
EXTT4=
EXTT5=
EXTT6=
EXTT7=
EXTT8=
EXTT9=
EXTT10=
EXTT11=
EXTT12=
PLAYORDER=
